# xmcd
#
# Track frame offsets: 
#        150
#        19242
#        35827
#        62062
#        84087
#        98715
#        114485
#        137017
#        151770
#
# Disc length: 2308 seconds
#
# Revision: 3
# Processed by: cddbd v1.5.2PL0 Copyright (c) Steve Scherf et al.
# Submitted via: ExactAudioCopyFreeDBPlugin 1.0
#
DISCID=68090209
DTITLE=Bill Withers - 1977 - Menagerie
DYEAR=1977
DGENRE=Soul
TTITLE0=Lovely Day
TTITLE1=I Want to Spend the Night
TTITLE2=Lovely Night for Dancing
TTITLE3=Then You Smile at Me
TTITLE4=She Wants To (Get On Down)
TTITLE5=It Ain't Because of Me Baby
TTITLE6=Tender Things
TTITLE7=Wintertime
TTITLE8=Let Me Be the One You Need
EXTD=
EXTT0=
EXTT1=
EXTT2=
EXTT3=
EXTT4=
EXTT5=
EXTT6=
EXTT7=
EXTT8=
PLAYORDER=
